<svg width="1200" height="1200" viewBox="0 0 1200 1200" fill="none" xmlns="http://www.w3.org/2000/svg">
<rect width="1200" height="1200" rx="136" fill="url(#paint0_linear_882_30)"/>
<path d="M123.078 869V330.956H238.265V586.337L187.492 549.963H493.646L442.115 586.337V330.956H557.302V869H442.115V610.587L493.646 646.962H187.492L238.265 610.587V869H123.078ZM658.872 869V330.956H894.551C933.957 330.956 968.058 337.524 996.855 350.659C1026.16 363.794 1048.64 382.487 1064.3 406.737C1079.96 430.481 1087.79 458.773 1087.79 491.611C1087.79 516.366 1082.49 538.343 1071.88 557.541C1061.77 576.739 1047.63 592.4 1029.44 604.525C1011.76 616.65 991.297 624.228 968.058 627.259L965.785 620.439C1001.65 620.439 1028.94 628.269 1047.63 643.931C1066.32 659.087 1076.93 682.579 1079.46 714.407L1093.1 869H975.636L965.785 732.594C964.269 711.881 957.701 696.725 946.081 687.126C934.967 677.022 915.769 671.97 888.488 671.97H774.059V869H658.872ZM774.059 575.728H881.668C909.454 575.728 930.925 569.413 946.081 556.783C961.743 543.648 969.574 525.208 969.574 501.463C969.574 477.213 961.743 459.026 946.081 446.901C930.42 434.271 907.686 427.955 877.879 427.955H774.059V575.728Z" fill="url(#paint1_linear_882_30)"/>
<defs>
<linearGradient id="paint0_linear_882_30" x1="151" y1="159" x2="1330.5" y2="1326.5" gradientUnits="userSpaceOnUse">
<stop stop-color="#1A3D3D"/>
<stop offset="0.5" stop-color="#0F2424"/>
<stop offset="1" stop-color="#0A1818"/>
</linearGradient>
<linearGradient id="paint1_linear_882_30" x1="7.49998" y1="15" x2="1198" y2="1191" gradientUnits="userSpaceOnUse">
<stop stop-color="white" stop-opacity="0.95"/>
<stop offset="1" stop-color="#5EB8B8"/>
</linearGradient>
</defs>
</svg>
