<svg xmlns="http://www.w3.org/2000/svg" xmlns:xlink="http://www.w3.org/1999/xlink" viewBox="0 0 56.05 66.8"><defs><style>.cls-1{fill:#231f20;}.cls-2{fill:#ea2d2e;}.cls-3{fill:#fff;}.cls-4{fill:#fd0;}.cls-5{fill:url(#linear-gradient);}.cls-6{fill:url(#linear-gradient-2);}.cls-7{fill:url(#linear-gradient-3);}.cls-8{fill:url(#linear-gradient-4);}.cls-9{fill:url(#linear-gradient-5);}.cls-10{fill:url(#linear-gradient-6);}.cls-11{fill:url(#linear-gradient-7);}.cls-12{fill:url(#linear-gradient-8);}.cls-13{fill:url(#linear-gradient-9);}.cls-14{fill:url(#linear-gradient-10);}.cls-15{fill:url(#linear-gradient-11);}.cls-16{fill:url(#linear-gradient-12);}.cls-17{fill:url(#linear-gradient-13);}.cls-18{fill:url(#linear-gradient-14);}.cls-19{fill:url(#linear-gradient-15);}.cls-20{fill:url(#linear-gradient-16);}.cls-21{fill:url(#linear-gradient-17);}.cls-22{fill:url(#linear-gradient-18);}.cls-23{fill:url(#linear-gradient-19);}</style><linearGradient id="linear-gradient" x1="3.68" y1="71.2" x2="14.15" y2="71.2" gradientTransform="translate(8.54 -38.23) rotate(1.83)" gradientUnits="userSpaceOnUse"><stop offset="0.05" stop-color="#ec1c24"/><stop offset="0.09" stop-color="#ed2323"/><stop offset="0.16" stop-color="#ef371f"/><stop offset="0.23" stop-color="#f35919"/><stop offset="0.32" stop-color="#f88611"/><stop offset="0.42" stop-color="#fec107"/><stop offset="0.43" stop-color="#ffca05"/></linearGradient><linearGradient id="linear-gradient-2" x1="4.69" y1="68.59" x2="14.73" y2="68.59" xlink:href="#linear-gradient"/><linearGradient id="linear-gradient-3" x1="3.67" y1="70.8" x2="14.15" y2="70.8" xlink:href="#linear-gradient"/><linearGradient id="linear-gradient-4" x1="4.68" y1="70.8" x2="14.73" y2="70.8" xlink:href="#linear-gradient"/><linearGradient id="linear-gradient-5" x1="6.33" y1="66.15" x2="15.58" y2="66.15" xlink:href="#linear-gradient"/><linearGradient id="linear-gradient-6" x1="4.75" y1="69.09" x2="14.72" y2="69.09" xlink:href="#linear-gradient"/><linearGradient id="linear-gradient-7" x1="6.38" y1="69.09" x2="15.56" y2="69.09" xlink:href="#linear-gradient"/><linearGradient id="linear-gradient-8" x1="8.56" y1="63.98" x2="16.66" y2="63.98" xlink:href="#linear-gradient"/><linearGradient id="linear-gradient-9" x1="10.72" y1="61.73" x2="18.46" y2="62.95" xlink:href="#linear-gradient"/><linearGradient id="linear-gradient-10" x1="14.41" y1="60.73" x2="19.34" y2="60.73" xlink:href="#linear-gradient"/><linearGradient id="linear-gradient-11" x1="17.12" y1="59.61" x2="21.64" y2="60.33" xlink:href="#linear-gradient"/><linearGradient id="linear-gradient-12" x1="19.25" y1="58.37" x2="24.63" y2="61.6" xlink:href="#linear-gradient"/><linearGradient id="linear-gradient-13" x1="24.39" y1="55.09" x2="22.92" y2="65.51" xlink:href="#linear-gradient"/><linearGradient id="linear-gradient-14" x1="28.33" y1="60.34" x2="23.42" y2="60.34" xlink:href="#linear-gradient"/><linearGradient id="linear-gradient-15" x1="31.52" y1="61.62" x2="24.93" y2="61.62" xlink:href="#linear-gradient"/><linearGradient id="linear-gradient-16" x1="34.33" y1="63.33" x2="26.31" y2="63.33" xlink:href="#linear-gradient"/><linearGradient id="linear-gradient-17" x1="36.67" y1="65.42" x2="27.52" y2="65.42" xlink:href="#linear-gradient"/><linearGradient id="linear-gradient-18" x1="38.44" y1="67.81" x2="28.52" y2="67.81" xlink:href="#linear-gradient"/><linearGradient id="linear-gradient-19" x1="39.58" y1="70.41" x2="29.25" y2="70.41" xlink:href="#linear-gradient"/></defs><title>logo_1</title><g id="Layer_2" data-name="Layer 2"><g id="Layer_1-2" data-name="Layer 1"><path class="cls-1" d="M28.26,64.79A61.8,61.8,0,0,1,8.69,61.54,54.62,54.62,0,0,1,2.45,59a83.72,83.72,0,0,0,3.3-36.21A82,82,0,0,0,2.57,7.94,53,53,0,0,1,8.81,5.35,61.26,61.26,0,0,1,28.53,2,58,58,0,0,1,53.31,7.6a83.44,83.44,0,0,0-3.11,15A85.35,85.35,0,0,0,53.6,59a58.61,58.61,0,0,1-25.34,5.79Z"/><path class="cls-2" d="M0,60C9.89,32.13.1,7,.1,7A60.9,60.9,0,0,1,55.65,6.5l.11.1s-9.6,25.53.29,53.35l-.29.18-.11.11A61.42,61.42,0,0,1,.05,60Zm28.26,4.84A58.61,58.61,0,0,0,53.6,59a85.35,85.35,0,0,1-3.4-36.39,83.44,83.44,0,0,1,3.11-15A58,58,0,0,0,28.53,2,61.26,61.26,0,0,0,8.81,5.35,53,53,0,0,0,2.57,7.94,82,82,0,0,1,5.75,22.78,83.72,83.72,0,0,1,2.45,59a54.62,54.62,0,0,0,6.24,2.55,61.8,61.8,0,0,0,19.57,3.25Z"/><path class="cls-3" d="M9.83,10.28c1.23-.5,2.47-1,3.73-1.36a5.25,5.25,0,0,1,1.87-.31A2.87,2.87,0,0,1,16.74,9a2.59,2.59,0,0,1,.89.88,4,4,0,0,1,.49,1.21,4,4,0,0,1,.1,1.67,3.12,3.12,0,0,1-.52,1.14,2.77,2.77,0,0,1-.86.78,7.53,7.53,0,0,1-1.26.57c-1.08.34-2.15.74-3.21,1.17C11.52,14.37,10.68,12.33,9.83,10.28Zm3,.47L14,14.17l.56-.19a3,3,0,0,0,1-.46,1,1,0,0,0,.34-.62,2.86,2.86,0,0,0-.15-1.16,1.89,1.89,0,0,0-.82-1.26,2,2,0,0,0-1.48.06Z"/><path class="cls-3" d="M18.7,7.58C19.84,7.35,21,7.16,22.13,7c.61,1.27,1.19,2.56,1.73,3.86.27-1.38.58-2.75.92-4.13,1.15-.08,2.3-.12,3.46-.12,0,2.21,0,4.42,0,6.63-.62,0-1.24,0-1.86,0-.07-1.68-.14-3.36-.22-5.05q-.69,2.57-1.2,5.14c-.56,0-1.12.1-1.68.17-.67-1.62-1.41-3.22-2.19-4.8.25,1.66.51,3.33.77,5q-.92.15-1.83.33Z"/><path class="cls-3" d="M29.71,13.29,30,6.66c1.46.06,2.92.18,4.37.36a7.18,7.18,0,0,1,1.83.44,2,2,0,0,1,.91.78,1.53,1.53,0,0,1,.17,1.12,1.54,1.54,0,0,1-.47.88,2.12,2.12,0,0,1-.88.5,3.41,3.41,0,0,1-.89.12,2.67,2.67,0,0,1,.58.34,2.15,2.15,0,0,1,.32.41,2.38,2.38,0,0,1,.26.47c.26.7.5,1.4.73,2.11-.84-.18-1.68-.34-2.53-.47-.3-.72-.62-1.45-1-2.17A1.52,1.52,0,0,0,33,11a1.09,1.09,0,0,0-.57-.21l-.21,0c-.08.89-.17,1.78-.25,2.68C31.23,13.37,30.47,13.32,29.71,13.29Zm2.63-3.78,1,.11c.11,0,.33,0,.66,0a.71.71,0,0,0,.43-.16.52.52,0,0,0,.21-.35.57.57,0,0,0-.18-.53,1.88,1.88,0,0,0-.92-.29l-1.12-.11Z"/><path class="cls-3" d="M43.06,13.13c.61.41,1.21.84,1.8,1.28a3.35,3.35,0,0,1-1.09.92,3,3,0,0,1-1.3.32,5.16,5.16,0,0,1-1.64-.29A6.24,6.24,0,0,1,39,14.5a3.33,3.33,0,0,1-1-1.4A3.45,3.45,0,0,1,37.87,11,3,3,0,0,1,39.5,8.77a4.63,4.63,0,0,1,3.31,0,4.81,4.81,0,0,1,2.25,1.32,2.89,2.89,0,0,1,.69,2c-.75-.17-1.5-.31-2.25-.44a1.54,1.54,0,0,0-.09-.5,1.42,1.42,0,0,0-.38-.51,1.73,1.73,0,0,0-.63-.34,1.56,1.56,0,0,0-1.44.15,2,2,0,0,0-.69,1.16,2.29,2.29,0,0,0,0,1.56,1.79,1.79,0,0,0,2,.72A2,2,0,0,0,43.06,13.13Z"/><path class="cls-4" d="M12.09,52.12a31.79,31.79,0,0,0,3.11,1.51c-.12.3-.25.6-.38.9-.68-.29-1.35-.6-2-.93l-.32.65c.63.31,1.27.61,1.91.88L14,56c-.67-.28-1.32-.59-2-.91l-.4.8c.74.37,1.48.72,2.24,1-.14.32-.27.64-.4,1a36.24,36.24,0,0,1-3.61-1.74Z"/><path class="cls-4" d="M14.55,56.67c.42.14.85.27,1.27.39a1,1,0,0,0,0,.53.76.76,0,0,0,.5.47.75.75,0,0,0,.49,0,.42.42,0,0,0,.25-.26.4.4,0,0,0,0-.35,1.72,1.72,0,0,0-.58-.48,2.64,2.64,0,0,1-1-1,1.11,1.11,0,0,1,0-1,1.33,1.33,0,0,1,.42-.55,1.38,1.38,0,0,1,.7-.26,2.61,2.61,0,0,1,1,.18,2,2,0,0,1,1.06.67,1.5,1.5,0,0,1,.19,1.14L17.55,56a.75.75,0,0,0-.06-.49.67.67,0,0,0-.37-.27.57.57,0,0,0-.36,0,.31.31,0,0,0-.19.21.23.23,0,0,0,0,.21,1,1,0,0,0,.37.31,6.2,6.2,0,0,1,1.07.76,1.43,1.43,0,0,1,.4.65,1.35,1.35,0,0,1,0,.69,1.43,1.43,0,0,1-1.27,1.06A2.7,2.7,0,0,1,16,58.9a2.24,2.24,0,0,1-1.4-1A1.7,1.7,0,0,1,14.55,56.67Z"/><path class="cls-4" d="M19.58,55.13a32.29,32.29,0,0,0,3.77.77c-.06.38-.11.75-.16,1.12-.44-.06-.88-.14-1.32-.22l-.63,3.38c-.47-.09-.94-.18-1.41-.29l.76-3.35-1.3-.32C19.39,55.86,19.48,55.49,19.58,55.13Z"/><path class="cls-4" d="M23.93,56c.62.08,1.24.15,1.87.19a2.26,2.26,0,0,1,.88.22,1.58,1.58,0,0,1,.56.5,2.23,2.23,0,0,1,.31.74,3.24,3.24,0,0,1,.09.89,3.06,3.06,0,0,1-.18,1.13,1.68,1.68,0,0,1-.48.66,1.41,1.41,0,0,1-.65.34,2.93,2.93,0,0,1-.86.07c-.71,0-1.41-.12-2.12-.21C23.54,59,23.74,57.49,23.93,56Zm1.16,1.17c-.07.83-.15,1.66-.22,2.48l.34,0a1.28,1.28,0,0,0,.63,0,.65.65,0,0,0,.3-.33,2.08,2.08,0,0,0,.15-.78,1.63,1.63,0,0,0-.17-1,.87.87,0,0,0-.7-.32Z"/><path class="cls-4" d="M34.06,60.36a38.15,38.15,0,0,1-3.84.4,2.38,2.38,0,0,1,.33-1.08,6.5,6.5,0,0,1,1.11-1.26,3.28,3.28,0,0,0,.61-.7.7.7,0,0,0,.09-.42.5.5,0,0,0-.55-.45.51.51,0,0,0-.35.19,1,1,0,0,0-.14.55c-.4,0-.79,0-1.19,0a2.47,2.47,0,0,1,.2-.85,1.28,1.28,0,0,1,.48-.5,2.22,2.22,0,0,1,.88-.24,2.51,2.51,0,0,1,.94,0,1.23,1.23,0,0,1,.59.39,1.33,1.33,0,0,1,.3.67,1.46,1.46,0,0,1-.11.82,2.87,2.87,0,0,1-.73,1c-.22.2-.38.34-.45.42a3.15,3.15,0,0,0-.27.31c.65-.07,1.3-.15,1.94-.25C34,59.68,34,60,34.06,60.36Z"/><path class="cls-4" d="M34.22,58a2.94,2.94,0,0,1,.11-1.87,1.62,1.62,0,0,1,1.16-.76,1.69,1.69,0,0,1,.69,0,1.25,1.25,0,0,1,.49.18,1.79,1.79,0,0,1,.36.3,2.25,2.25,0,0,1,.28.41,5.39,5.39,0,0,1,.4,1,3,3,0,0,1,.07,1.87,1.67,1.67,0,0,1-1.29.91,2,2,0,0,1-1,0,1.39,1.39,0,0,1-.68-.42,1.84,1.84,0,0,1-.37-.63A4.76,4.76,0,0,1,34.22,58Zm1.18-.22a3.12,3.12,0,0,0,.39,1.13.47.47,0,0,0,.8,0,.8.8,0,0,0,.1-.47,4.62,4.62,0,0,0-.14-.9,3.56,3.56,0,0,0-.43-1.15.45.45,0,0,0-.49-.21.44.44,0,0,0-.34.4A3.8,3.8,0,0,0,35.4,57.78Z"/><path class="cls-4" d="M40,54c.54,1.45,1.09,2.89,1.64,4.34l-1.24.45-1-2.88a4.23,4.23,0,0,1-.42.54,4.65,4.65,0,0,1-.59.48l-.3-1a2.5,2.5,0,0,0,.74-.76,1.87,1.87,0,0,0,.25-.85Z"/><path class="cls-4" d="M42.07,55.7a2.9,2.9,0,0,1-.31-1.85,1.66,1.66,0,0,1,1-1,2.12,2.12,0,0,1,.67-.21,1.29,1.29,0,0,1,.53.06,1.56,1.56,0,0,1,.43.21,1.8,1.8,0,0,1,.36.33,4.16,4.16,0,0,1,.62.87,3,3,0,0,1,.5,1.8,1.72,1.72,0,0,1-1.08,1.2,2.11,2.11,0,0,1-.95.24,1.44,1.44,0,0,1-.77-.25,1.86,1.86,0,0,1-.51-.53A4.83,4.83,0,0,1,42.07,55.7Zm1.12-.5a3.25,3.25,0,0,0,.64,1,.48.48,0,0,0,.55.09.51.51,0,0,0,.25-.27.87.87,0,0,0,0-.48,3.87,3.87,0,0,0-.35-.84,3.47,3.47,0,0,0-.68-1,.46.46,0,0,0-.53-.08.45.45,0,0,0-.25.47A3.58,3.58,0,0,0,43.19,55.2Z"/><path class="cls-5" d="M18.93,32.93,10,31.64l8.63,3.09A9.6,9.6,0,0,1,19,32.94Z"/><path class="cls-6" d="M19.64,31.25h0l-8.52-3,7.82,4.67h0A8.82,8.82,0,0,1,19.64,31.25Z"/><polygon class="cls-7" points="18.96 32.93 18.93 32.93 18.96 32.94 18.96 32.93"/><polygon class="cls-8" points="18.96 32.93 18.93 32.93 18.96 32.94 18.96 32.93"/><path class="cls-9" d="M20.62,29.72l-7.76-4.57,6.77,6.1h0A9.27,9.27,0,0,1,20.62,29.72Z"/><polygon class="cls-10" points="19.64 31.25 19.63 31.25 19.64 31.25 19.64 31.25"/><polygon class="cls-11" points="19.64 31.25 19.63 31.25 19.64 31.25 19.64 31.25"/><path class="cls-12" d="M21.89,28.41l-6.72-6,5.46,7.27A9.68,9.68,0,0,1,21.89,28.41Z"/><path class="cls-13" d="M18,20.23l3.93,8.16a10.11,10.11,0,0,1,1.48-1Z"/><path class="cls-14" d="M21.14,18.6l2.27,8.74a9,9,0,0,1,1.65-.73Z"/><path class="cls-15" d="M24.57,17.61l.53,9a10.42,10.42,0,0,1,1.76-.39Z"/><path class="cls-16" d="M28.71,26.15l-.59-8.84-1.21,8.88A9.81,9.81,0,0,1,28.71,26.15Z"/><path class="cls-17" d="M30.53,26.46l1.14-8.76-2.9,8.46h.12A9.88,9.88,0,0,1,30.53,26.46Z"/><path class="cls-18" d="M35.07,18.76l-4.46,7.72a9.5,9.5,0,0,1,1.66.64Z"/><path class="cls-19" d="M38.2,20.47l-5.85,6.69a9.19,9.19,0,0,1,1.49.95Z"/><path class="cls-20" d="M35.2,29.4l5.74-6.65-7,5.42A9.91,9.91,0,0,1,35.2,29.4Z"/><path class="cls-21" d="M43.19,25.51l-7.93,4a10.5,10.5,0,0,1,1,1.45Z"/><path class="cls-22" d="M44.87,28.66,36.33,31a9.32,9.32,0,0,1,.7,1.62Z"/><path class="cls-23" d="M45.9,32.07l-8.84.66a8.87,8.87,0,0,1,.38,1.73Z"/><path class="cls-2" d="M37.44,34.46a8.87,8.87,0,0,0-.38-1.73l0-.1a9.32,9.32,0,0,0-.7-1.62.41.41,0,0,1,0-.09,10.5,10.5,0,0,0-1-1.45l-.06-.07a9.91,9.91,0,0,0-1.28-1.23l-.08-.06a9.19,9.19,0,0,0-1.49-.95l-.08,0a9.5,9.5,0,0,0-1.66-.64l-.08,0a9.88,9.88,0,0,0-1.64-.3h-.18a9.81,9.81,0,0,0-1.8,0h-.05a10.42,10.42,0,0,0-1.76.39l0,0a9,9,0,0,0-1.65.73h0a10.11,10.11,0,0,0-1.48,1v0a9.68,9.68,0,0,0-1.26,1.3h0a9.27,9.27,0,0,0-1,1.53h0A8.82,8.82,0,0,0,19,32.93h0a9.6,9.6,0,0,0-.34,1.79h0"/><path class="cls-3" d="M11.36,34.91V49.06s6.19-1.53,9.25-2.55c.73-.08,3.36-1.1,7.08,2.4l.08-14.36s-2.85-4.52-10-1.24C16.53,33.75,11.36,34.91,11.36,34.91Z"/><path d="M27.91,49.43l-.38-.36a7.92,7.92,0,0,0-5.3-2.53,7.18,7.18,0,0,0-1.26.13l-.31.06c-3,1-9.19,2.53-9.25,2.54l-.28.07V34.74l.18,0s5.15-1.17,6.38-1.6a11.93,11.93,0,0,1,4.9-1.21A6.35,6.35,0,0,1,28,34.43l0,.06v.06ZM11.58,35.09V48.77c1.24-.31,6.31-1.59,9-2.48h.05a1.26,1.26,0,0,0,.29-.05,7.76,7.76,0,0,1,1.35-.14,8.07,8.07,0,0,1,5.24,2.32l.07-13.79a6,6,0,0,0-4.95-2.28,11.63,11.63,0,0,0-4.73,1.17h0C16.72,33.92,12.51,34.88,11.58,35.09Z"/><path class="cls-3" d="M44.07,34.91V49.06s-6.2-1.53-9.26-2.55c-.73-.08-3.35-1.1-7.07,2.4l-.08-14.36s2.85-4.52,10-1.24C38.89,33.75,44.07,34.91,44.07,34.91Z"/><path d="M27.52,49.43l-.08-14.94,0-.06a6.32,6.32,0,0,1,5.36-2.54,11.94,11.94,0,0,1,4.91,1.21c1.23.43,6.33,1.59,6.38,1.6l.17,0v14.6L44,49.27c-.07,0-6.21-1.53-9.26-2.54l-.3-.06a7.31,7.31,0,0,0-1.27-.13,7.94,7.94,0,0,0-5.3,2.53Zm5.67-3.34a7.65,7.65,0,0,1,1.35.14,1.35,1.35,0,0,0,.29.05h.05c2.65.89,7.73,2.17,9,2.48V35.09c-.93-.21-5.15-1.17-6.27-1.57h0a11.59,11.59,0,0,0-4.73-1.17,6,6,0,0,0-4.95,2.28L28,48.41A8,8,0,0,1,33.19,46.09Z"/><path class="cls-3" d="M27.81,50.6a12,12,0,0,1,6-1.5c.75.06,8.42.8,9.92.29,0,0-5.53-1.39-7-1.85-.67-.18-3.58-1.49-6.21.11a28.49,28.49,0,0,0-2.79,2.05,30.2,30.2,0,0,0-2.8-2.05c-2.63-1.6-5.53-.29-6.21-.11-1.42.46-7,1.85-7,1.85,1.51.51,9.17-.23,9.92-.29a12,12,0,0,1,6,1.5l.08,0Z"/></g></g></svg>