<svg width="400" height="400" viewBox="0 0 400 400" fill="none" xmlns="http://www.w3.org/2000/svg">
<path d="M0 333.333H166.667V366.667H0V333.333Z" fill="white"/>
<path d="M0 233.333H166.667V266.667H0V233.333Z" fill="white"/>
<path d="M366.667 166.667H33.3333C24.4928 166.667 16.0143 163.155 9.76311 156.904C3.51189 150.652 0 142.174 0 133.333V33.3333C0 24.4928 3.51189 16.0143 9.76311 9.76311C16.0143 3.51189 24.4928 0 33.3333 0H366.667C375.507 0 383.986 3.51189 390.237 9.76311C396.488 16.0143 400 24.4928 400 33.3333V133.333C400 142.174 396.488 150.652 390.237 156.904C383.986 163.155 375.507 166.667 366.667 166.667ZM33.3333 33.3333V133.333H366.667V33.3333H33.3333Z" fill="white"/>
<path d="M366.667 400H266.667C257.826 400 249.348 396.488 243.096 390.237C236.845 383.986 233.333 375.507 233.333 366.667V266.667C233.333 257.826 236.845 249.348 243.096 243.097C249.348 236.845 257.826 233.333 266.667 233.333H366.667C375.507 233.333 383.986 236.845 390.237 243.097C396.488 249.348 400 257.826 400 266.667V366.667C400 375.507 396.488 383.986 390.237 390.237C383.986 396.488 375.507 400 366.667 400ZM266.667 266.667V366.667H366.667V266.667H266.667Z" fill="white"/>
</svg>
