<svg width="400" height="400" viewBox="0 0 400 400" fill="none" xmlns="http://www.w3.org/2000/svg">
<path d="M394.132 185.862L214.134 5.86396C212.278 4.00507 210.074 2.53033 207.648 1.52412C205.221 0.517916 202.62 0 199.994 0C197.367 0 194.766 0.517916 192.34 1.52412C189.914 2.53033 187.71 4.00507 185.854 5.86396L5.85568 185.862C3.05952 188.659 1.15541 192.222 0.384066 196.101C-0.387278 199.98 0.00877893 204.001 1.52216 207.655C3.03555 211.309 5.59831 214.432 8.88648 216.63C12.1746 218.828 16.0406 220.001 19.9955 220.002H39.9953V360C39.9953 382.06 57.9352 400 79.9949 400H319.993C342.052 400 359.992 382.06 359.992 360V220.002H379.992C383.947 220.001 387.813 218.828 391.101 216.63C394.389 214.432 396.952 211.309 398.465 207.655C399.979 204.001 400.375 199.98 399.603 196.101C398.832 192.222 396.928 188.659 394.132 185.862ZM320.013 360H79.9949V168.302L199.994 48.3035L319.993 168.302V260.001L320.013 360Z" fill="white"/>
</svg>
