<svg width="422" height="400" viewBox="0 0 422 400" fill="none" xmlns="http://www.w3.org/2000/svg">
<path d="M378.947 84.2105H315.789V42.1053C315.789 18.7368 297.053 0 273.684 0H147.368C124 0 105.263 18.7368 105.263 42.1053V84.2105H42.1053C18.7368 84.2105 0 102.947 0 126.316V357.895C0 381.263 18.7368 400 42.1053 400H378.947C402.316 400 421.053 381.263 421.053 357.895V126.316C421.053 102.947 402.316 84.2105 378.947 84.2105ZM147.368 42.1053H273.684V84.2105H147.368V42.1053ZM378.947 357.895H42.1053V315.789H378.947V357.895ZM378.947 252.632H42.1053V126.316H105.263V168.421H147.368V126.316H273.684V168.421H315.789V126.316H378.947V252.632Z" fill="white"/>
</svg>
