<svg width="295" height="5" viewBox="0 0 295 5" fill="none" xmlns="http://www.w3.org/2000/svg">
<path d="M1 1C1 1 3.00342 4 7.51111 4C12.0188 4 10.5162 1 14.0222 1C17.5282 1 16.5265 4 20.5333 4C24.5402 4 24.0393 1 27.0444 1C30.0496 1 30.5504 4 33.5556 4C36.5607 4 37.0615 1 40.0667 1C43.0718 1 43.5727 4 46.5778 4C49.5829 4 50.0838 1 53.0889 1C56.094 1 56.5949 4 59.6 4C62.6051 4 63.106 1 66.1111 1C69.1162 1 69.6171 4 72.6222 4C75.6274 4 76.1282 1 79.1333 1C82.1385 1 82.6393 4 85.6444 4C88.6496 4 89.1504 1 92.1556 1C95.1607 1 95.6615 4 98.6667 4C101.672 4 102.173 1 105.178 1C108.183 1 108.684 4 111.689 4C114.694 4 114.694 1 118.2 1C121.706 1 122.207 4 124.711 4C127.215 4 128.718 1 131.222 1C133.727 1 135.229 4 137.733 4C140.238 4 141.74 1 144.244 1C146.749 1 148.251 4 150.756 4C153.26 4 154.762 1 157.267 1C159.771 1 161.774 4 163.778 4C165.781 4 167.785 1 170.289 1C172.793 1 173.795 4 176.8 4C179.805 4 180.807 1 183.311 1C185.815 1 186.316 4 189.822 4C193.328 4 193.829 1 196.333 1C198.838 1 200.34 4 202.844 4C205.349 4 206.851 1 209.356 1C211.86 1 213.362 4 215.867 4C218.371 4 219.874 1 222.378 1C224.882 1 226.385 4 228.889 4C231.393 4 232.896 1 235.4 1C237.904 1 239.908 4 241.911 4C243.915 4 245.918 1 248.422 1C250.927 1 253.431 4 254.933 4C256.436 4 258.94 1 261.444 1C263.949 1 265.451 4 267.956 4C270.46 4 271.962 1 274.467 1C276.971 1 278.974 4 280.978 4C282.981 4 284.484 1 287.489 1C290.494 1 294 4 294 4" stroke="#E2C792" stroke-width="2" stroke-linecap="round" stroke-linejoin="round"/>
</svg>
