<svg width="1219" height="1219" viewBox="0 0 1219 1219" fill="none" xmlns="http://www.w3.org/2000/svg">
<path d="M609.498 0C273.418 0 0 273.421 0 609.502C0 945.579 273.418 1219 609.498 1219C945.579 1219 1219 945.582 1219 609.502C1219 273.421 945.579 0 609.498 0ZM515.475 61.9292C466.001 104.284 418.637 157.013 380.586 213.142C363.45 238.423 348.043 264.526 334.362 291.298H154.352C237.783 172.319 366.606 87.4143 515.475 61.9292ZM120.91 345.231H309.535C278.06 421.79 260.247 502.833 257.062 585.376H54.4901C58.2079 498.76 81.8197 417.213 120.91 345.231ZM54.7382 639.309H257.04C260.143 723.145 277.779 803.448 309.689 879.453H124.081C83.9878 807.644 59.3477 726.094 54.7382 639.309ZM158.383 933.383H335.128C348.607 959.087 363.777 984.259 380.686 1008.85C425.551 1074.08 473.774 1122.6 514.505 1156.91C368.426 1131.63 241.72 1049.13 158.383 933.383ZM582.532 1141.89C522.292 1097.78 451.378 1027.42 397.046 933.383H582.532V1141.89ZM582.532 879.45H369.059C336.936 809.83 314.752 729.517 311.027 639.305H582.528L582.532 879.45ZM582.532 585.376H311.027C314.385 501.528 333.459 421.183 367.958 345.231H582.532V585.376ZM582.532 291.298H395.471C404.661 275.111 414.563 259.14 425.228 243.406C480.75 161.5 541.611 107.866 582.532 77.4727V291.298ZM1164.51 585.376H961.931C958.745 502.833 940.933 421.79 909.458 345.231H1098.08C1137.17 417.213 1160.79 498.76 1164.51 585.376ZM1064.64 291.298H884.638C870.957 264.526 855.547 238.423 838.414 213.142C800.363 157.009 752.985 104.295 703.507 61.9256C852.379 87.4107 981.207 172.315 1064.64 291.298ZM636.465 77.4691C677.385 107.862 738.247 161.496 793.769 243.402C804.433 259.136 814.335 275.108 823.525 291.295H636.465V77.4691ZM636.465 345.231H851.038C885.537 421.183 904.611 501.528 907.97 585.376H636.465V345.231ZM636.465 639.309H907.966C904.245 729.52 882.057 809.833 849.934 879.453H636.461L636.465 639.309ZM636.465 933.383H821.95C767.618 1027.41 696.704 1097.78 636.465 1141.89V933.383ZM704.499 1156.91C745.225 1122.6 793.445 1074.07 838.306 1008.85C855.216 984.263 870.386 959.091 883.865 933.386H1060.61C977.277 1049.12 850.574 1131.63 704.499 1156.91ZM1094.92 879.45H909.303C941.214 803.444 958.85 723.145 961.953 639.305H1164.25C1159.65 726.094 1135.01 807.644 1094.92 879.45Z" fill="white"/>
</svg>
